<svg xmlns="http://www.w3.org/2000/svg" width="187" height="60" viewBox="0 0 187 60" version="1.1"><path d="M 113.442 8.290 C 113.170 9, 113.073 16.762, 113.227 25.540 L 113.507 41.500 114.003 24.249 C 114.491 7.304, 114.435 5.703, 113.442 8.290 M 132.441 8.294 C 132.168 9.006, 132.071 16.318, 132.226 24.544 L 132.508 39.500 133.004 23.249 C 133.492 7.273, 133.433 5.709, 132.441 8.294 M 92.817 9.775 C 93.808 10.471, 93.385 11.012, 91.116 11.952 C 85.492 14.282, 80.482 36.426, 84.065 43.121 C 90.542 55.224, 108 49.269, 108 34.957 L 108 29.815 102.498 30.157 C 99.437 30.348, 96.811 30.056, 96.577 29.500 C 96.347 28.950, 96.122 29.512, 96.079 30.750 C 96.015 32.580, 96.537 33, 98.875 33 C 101.855 33, 103 35.384, 103 41.590 C 103 45.990, 95.153 47.026, 90.750 43.208 C 88.084 40.896, 88.149 18.080, 90.829 15.655 C 94.604 12.239, 102 14.671, 102 19.329 C 102 20.532, 102.870 21, 105.108 21 C 112.647 21, 104.492 10.093, 96.372 9.315 C 93.220 9.013, 91.965 9.175, 92.817 9.775 M 124.772 21.340 C 125.204 40.621, 125.637 42.775, 125.810 26.500 C 125.898 18.250, 125.639 10.978, 125.235 10.340 C 124.831 9.703, 124.622 14.653, 124.772 21.340 M 143.833 22.291 C 144.443 46.267, 141.155 52.303, 127.500 52.273 L 124.500 52.266 127.773 53.285 C 137.423 56.286, 144.365 49.535, 144.839 36.686 C 145.026 31.634, 145.588 27.073, 146.089 26.550 C 147.319 25.267, 147.250 18.273, 146 17.500 C 145.450 17.160, 144.993 15.671, 144.985 14.191 C 144.976 12.711, 144.639 10.978, 144.235 10.340 C 143.831 9.702, 143.650 15.080, 143.833 22.291 M 116 26.100 L 116 42.200 119.400 45.600 C 124.758 50.958, 135.744 49.925, 139.188 43.740 C 141.215 40.100, 141.660 11, 139.689 11 C 138.850 11, 137.397 10.706, 136.461 10.347 C 134.882 9.741, 134.812 10.873, 135.495 25.890 C 136.354 44.784, 135.763 46.582, 129.082 45.387 C 122.220 44.160, 122 43.553, 122 25.845 L 122 10 119 10 L 116 10 116 26.100 M 149 29.500 L 149 49 151.961 49 L 154.922 49 155.211 40.250 L 155.500 31.500 160.646 31.201 C 168.978 30.718, 169.166 27, 160.859 27 L 154.905 27 155.202 20.750 L 155.500 14.500 163.643 14.211 C 178.810 13.674, 176.423 10, 160.906 10 L 149 10 149 29.500 M 175.068 13.750 L 175 17 166.440 17 L 157.879 17 158.190 20.750 C 158.498 24.482, 158.525 24.503, 163.667 25.020 C 166.509 25.306, 168.620 25.193, 168.358 24.770 C 168.096 24.346, 166.135 24, 164 24 C 154.591 24, 158.063 19.380, 168.143 18.487 C 176.715 17.729, 178.135 16.707, 176.196 12.695 C 175.211 10.657, 175.131 10.733, 175.068 13.750 M 93.200 18.200 C 92.387 19.013, 92.059 22.967, 92.183 30.450 L 92.366 41.500 92.933 30.829 C 93.245 24.959, 93.725 19.963, 94 19.726 C 94.275 19.489, 95.400 18.792, 96.500 18.178 C 98.487 17.068, 98.487 17.061, 96.450 17.030 C 95.323 17.014, 93.860 17.540, 93.200 18.200 M 37.809 23.750 C 37.639 24.163, 37.759 29.675, 38.075 36 L 38.650 47.500 38.715 35.250 C 38.776 23.885, 38.612 21.802, 37.809 23.750 M 102.212 26.743 L 109.925 27.083 110.591 30.633 C 112.941 43.160, 107.119 51.948, 96.325 52.169 C 92.152 52.254, 91.838 52.394, 94 53.208 C 103.582 56.816, 112 49.524, 112 37.615 C 112 26.604, 111.455 25.964, 102.275 26.201 L 94.500 26.402 102.212 26.743 M 169 30.893 C 169 34.189, 167.609 35, 161.959 35 L 158.081 35 157.790 43.250 L 157.500 51.500 154 52.153 C 150.790 52.753, 150.872 52.794, 155 52.653 L 159.500 52.500 159.790 44.250 L 160.081 36 165.040 36 L 170 36 170 32 C 170 29.800, 169.775 28, 169.500 28 C 169.225 28, 169 29.302, 169 30.893" stroke="none" fill="#e1e0f8" fill-rule="evenodd"/><path d="M 22.324 1.638 C 2.671 8.601, -2.898 37.346, 12.744 51.080 C 33.387 69.205, 64.451 54.559, 62.760 27.500 C 61.505 7.424, 41.715 -5.234, 22.324 1.638 M 88.121 8.710 C 77.295 14.043, 77.611 45.266, 88.543 50.454 C 102.005 56.841, 113.555 46.432, 110.583 30.591 L 109.909 27 101.897 27 L 93.885 27 94.193 31.241 C 94.433 34.565, 94.933 35.560, 96.500 35.838 C 100.441 36.539, 101.046 41.001, 97.389 42.404 C 92.011 44.468, 89.027 20.899, 94.250 17.612 C 96.531 16.176, 99.248 17.816, 100.022 21.095 C 100.528 23.235, 101.136 23.500, 105.545 23.500 L 110.500 23.500 110.378 19.660 C 110.068 9.908, 97.871 3.907, 88.121 8.710 M 114.667 7.667 C 112.625 9.708, 114.005 42.712, 116.273 46.102 C 120.923 53.053, 133.046 54.185, 139.256 48.249 C 147.350 40.511, 146.107 6.588, 137.753 7.192 L 133.500 7.500 133 23.833 C 132.458 41.532, 131.485 44.400, 126.862 41.926 C 125.178 41.025, 125 39.550, 125 26.530 C 125 8.502, 121.047 1.286, 114.667 7.667 M 148.250 7.662 C 147.305 8.044, 147 13.382, 147 29.564 L 147 50.962 149.379 51.559 C 150.688 51.887, 153.050 52.009, 154.629 51.828 L 157.500 51.500 157.790 43.250 L 158.081 35 162.290 34.985 C 171.400 34.952, 172.497 25.900, 163.500 25 C 158.547 24.505, 158.497 24.465, 158.190 20.750 L 157.879 17 166.440 17 L 175 17 175 12.607 C 175 9.524, 174.528 8.033, 173.418 7.607 C 171.541 6.887, 150.055 6.934, 148.250 7.662 M 89.315 10.409 C 84.118 12.758, 83 16.235, 83 30.050 L 83 42.200 86.400 45.600 C 95.291 54.491, 108 47.989, 108 34.550 L 108 29 102 29 C 96.667 29, 96 29.222, 96 31 C 96 32.556, 96.667 33, 99 33 C 101.833 33, 102 33.222, 102 37 C 102 43.886, 94.831 47.786, 90.655 43.171 C 88.090 40.337, 88.231 18.006, 90.829 15.655 C 94.604 12.239, 102 14.671, 102 19.329 C 102 20.532, 102.870 21, 105.108 21 C 107.995 21, 108.169 20.804, 107.548 18.250 C 105.809 11.093, 96.581 7.125, 89.315 10.409 M 116 26.100 L 116 42.200 119.400 45.600 C 123.289 49.489, 129.662 50.260, 135.020 47.490 C 139.820 45.007, 140.410 42.798, 140.826 25.750 L 141.210 10 138.105 10 L 135 10 135 25.045 C 135 41.561, 133.742 45, 127.700 45 C 122.671 45, 122 42.726, 122 25.671 L 122 10 119 10 L 116 10 116 26.100 M 149 29.500 L 149 49 151.961 49 L 154.922 49 155.211 40.250 L 155.500 31.500 160.646 31.201 C 168.978 30.718, 169.166 27, 160.859 27 L 154.905 27 155.202 20.750 L 155.500 14.500 163.643 14.211 C 178.810 13.674, 176.423 10, 160.906 10 L 149 10 149 29.500 M 46.686 12.424 C 42.450 13.208, 41.174 13.798, 41.984 14.598 C 42.796 15.399, 39.028 18.455, 28.048 25.902 C 15.532 34.390, 13 36.518, 13 38.553 C 13 41.950, 12.544 42.179, 29.046 30.500 C 43.983 19.929, 45.528 19.083, 46.202 21.105 C 46.404 21.713, 48.034 19.855, 49.824 16.977 C 53.689 10.759, 53.914 11.087, 46.686 12.424 M 41.263 23.312 L 38.026 25.500 38.013 36.250 L 38 47 41.500 47 L 45 47 45 34 C 45 26.850, 44.888 21.028, 44.750 21.062 C 44.612 21.096, 43.043 22.109, 41.263 23.312 M 33.250 29.115 C 30.033 31.175, 30 31.277, 30 39.098 L 30 47 33.500 47 L 37 47 37 37 C 37 31.500, 36.888 27.008, 36.750 27.017 C 36.612 27.026, 35.038 27.970, 33.250 29.115 M 24.750 35.115 C 22.401 36.868, 22 37.884, 22 42.083 L 22 47 25.500 47 L 29 47 29 40 C 29 32.345, 28.789 32.102, 24.750 35.115 M 16.250 41.115 C 11.734 44.007, 11.862 47, 16.500 47 C 19.917 47, 20 46.905, 20 43 C 20 40.800, 19.887 39.008, 19.750 39.017 C 19.613 39.026, 18.038 39.970, 16.250 41.115" stroke="none" fill="#9896e8" fill-rule="evenodd"/></svg>